<mxfile host="Electron" agent="Mozilla/5.0 (Windows NT 10.0; Win64; x64) AppleWebKit/537.36 (KHTML, like Gecko) draw.io/24.7.17 Chrome/128.0.6613.36 Electron/32.0.1 Safari/537.36" version="24.7.17">
  <diagram name="Page-1" id="nk33O3myFzExoFOTdXr2">
    <mxGraphModel dx="1114" dy="664" grid="1" gridSize="10" guides="1" tooltips="1" connect="1" arrows="1" fold="1" page="1" pageScale="1" pageWidth="850" pageHeight="1100" math="0" shadow="0">
      <root>
        <mxCell id="0" />
        <mxCell id="1" parent="0" />
        <mxCell id="DwHD0lK8wIMY4wtLwy6P-3" value="" style="edgeStyle=orthogonalEdgeStyle;rounded=0;orthogonalLoop=1;jettySize=auto;html=1;" edge="1" parent="1" source="UBjv-P3hsI7ne-E2DAJY-2" target="DwHD0lK8wIMY4wtLwy6P-2">
          <mxGeometry relative="1" as="geometry" />
        </mxCell>
        <mxCell id="UBjv-P3hsI7ne-E2DAJY-2" value="START" style="rounded=1;whiteSpace=wrap;html=1;arcSize=50;" parent="1" vertex="1">
          <mxGeometry x="145" y="20" width="80" height="30" as="geometry" />
        </mxCell>
        <mxCell id="UBjv-P3hsI7ne-E2DAJY-3" value="END" style="rounded=1;whiteSpace=wrap;html=1;arcSize=50;" parent="1" vertex="1">
          <mxGeometry x="345" y="850" width="80" height="30" as="geometry" />
        </mxCell>
        <mxCell id="DwHD0lK8wIMY4wtLwy6P-5" value="" style="edgeStyle=orthogonalEdgeStyle;rounded=0;orthogonalLoop=1;jettySize=auto;html=1;" edge="1" parent="1" source="DwHD0lK8wIMY4wtLwy6P-2" target="DwHD0lK8wIMY4wtLwy6P-4">
          <mxGeometry relative="1" as="geometry" />
        </mxCell>
        <mxCell id="DwHD0lK8wIMY4wtLwy6P-2" value="&quot;ใส่ค่าที่1 ค่าที่2 ค่าที่3&quot;" style="shape=parallelogram;perimeter=parallelogramPerimeter;whiteSpace=wrap;html=1;fixedSize=1;" vertex="1" parent="1">
          <mxGeometry x="110" y="90" width="150" height="60" as="geometry" />
        </mxCell>
        <mxCell id="DwHD0lK8wIMY4wtLwy6P-18" value="" style="edgeStyle=orthogonalEdgeStyle;rounded=0;orthogonalLoop=1;jettySize=auto;html=1;" edge="1" parent="1" source="DwHD0lK8wIMY4wtLwy6P-4" target="DwHD0lK8wIMY4wtLwy6P-17">
          <mxGeometry relative="1" as="geometry" />
        </mxCell>
        <mxCell id="DwHD0lK8wIMY4wtLwy6P-4" value="&lt;div&gt;&quot;1st Number = ค่าที่ 1&lt;/div&gt;&lt;div&gt;2nd Number =&amp;nbsp;&lt;span style=&quot;background-color: initial;&quot;&gt;ค่าที่ &lt;/span&gt;&lt;span style=&quot;background-color: initial;&quot;&gt;2&lt;/span&gt;&lt;/div&gt;&lt;div&gt;3rd Number =&amp;nbsp;&lt;span style=&quot;background-color: initial;&quot;&gt;ค่าที่ &lt;/span&gt;&lt;span style=&quot;background-color: initial;&quot;&gt;3&quot;&lt;/span&gt;&lt;/div&gt;" style="shape=parallelogram;perimeter=parallelogramPerimeter;whiteSpace=wrap;html=1;fixedSize=1;" vertex="1" parent="1">
          <mxGeometry x="110" y="190" width="150" height="60" as="geometry" />
        </mxCell>
        <mxCell id="DwHD0lK8wIMY4wtLwy6P-25" style="edgeStyle=orthogonalEdgeStyle;rounded=0;orthogonalLoop=1;jettySize=auto;html=1;entryX=0.5;entryY=0;entryDx=0;entryDy=0;" edge="1" parent="1" source="DwHD0lK8wIMY4wtLwy6P-17" target="DwHD0lK8wIMY4wtLwy6P-20">
          <mxGeometry relative="1" as="geometry" />
        </mxCell>
        <mxCell id="DwHD0lK8wIMY4wtLwy6P-34" value="เท็จ" style="edgeLabel;html=1;align=center;verticalAlign=middle;resizable=0;points=[];" vertex="1" connectable="0" parent="DwHD0lK8wIMY4wtLwy6P-25">
          <mxGeometry x="-0.2762" y="-3" relative="1" as="geometry">
            <mxPoint as="offset" />
          </mxGeometry>
        </mxCell>
        <mxCell id="DwHD0lK8wIMY4wtLwy6P-29" value="" style="edgeStyle=orthogonalEdgeStyle;rounded=0;orthogonalLoop=1;jettySize=auto;html=1;" edge="1" parent="1" source="DwHD0lK8wIMY4wtLwy6P-17" target="DwHD0lK8wIMY4wtLwy6P-28">
          <mxGeometry relative="1" as="geometry" />
        </mxCell>
        <mxCell id="DwHD0lK8wIMY4wtLwy6P-36" value="จริง" style="edgeLabel;html=1;align=center;verticalAlign=middle;resizable=0;points=[];" vertex="1" connectable="0" parent="DwHD0lK8wIMY4wtLwy6P-29">
          <mxGeometry x="-0.08" y="-2" relative="1" as="geometry">
            <mxPoint as="offset" />
          </mxGeometry>
        </mxCell>
        <mxCell id="DwHD0lK8wIMY4wtLwy6P-17" value="ถ้า 1st มากที่สุด" style="rhombus;whiteSpace=wrap;html=1;" vertex="1" parent="1">
          <mxGeometry x="145" y="320" width="80" height="80" as="geometry" />
        </mxCell>
        <mxCell id="DwHD0lK8wIMY4wtLwy6P-31" value="" style="edgeStyle=orthogonalEdgeStyle;rounded=0;orthogonalLoop=1;jettySize=auto;html=1;" edge="1" parent="1" source="DwHD0lK8wIMY4wtLwy6P-20" target="DwHD0lK8wIMY4wtLwy6P-30">
          <mxGeometry relative="1" as="geometry" />
        </mxCell>
        <mxCell id="DwHD0lK8wIMY4wtLwy6P-37" value="จริง" style="edgeLabel;html=1;align=center;verticalAlign=middle;resizable=0;points=[];" vertex="1" connectable="0" parent="DwHD0lK8wIMY4wtLwy6P-31">
          <mxGeometry x="-0.0286" y="2" relative="1" as="geometry">
            <mxPoint as="offset" />
          </mxGeometry>
        </mxCell>
        <mxCell id="DwHD0lK8wIMY4wtLwy6P-33" value="" style="edgeStyle=orthogonalEdgeStyle;rounded=0;orthogonalLoop=1;jettySize=auto;html=1;" edge="1" parent="1" source="DwHD0lK8wIMY4wtLwy6P-20" target="DwHD0lK8wIMY4wtLwy6P-32">
          <mxGeometry relative="1" as="geometry" />
        </mxCell>
        <mxCell id="DwHD0lK8wIMY4wtLwy6P-35" value="เท็จ" style="edgeLabel;html=1;align=center;verticalAlign=middle;resizable=0;points=[];" vertex="1" connectable="0" parent="DwHD0lK8wIMY4wtLwy6P-33">
          <mxGeometry x="-0.4933" y="-4" relative="1" as="geometry">
            <mxPoint as="offset" />
          </mxGeometry>
        </mxCell>
        <mxCell id="DwHD0lK8wIMY4wtLwy6P-20" value="ถ้า 2st มากที่สุด" style="rhombus;whiteSpace=wrap;html=1;" vertex="1" parent="1">
          <mxGeometry x="345" y="410" width="80" height="80" as="geometry" />
        </mxCell>
        <mxCell id="DwHD0lK8wIMY4wtLwy6P-41" style="edgeStyle=orthogonalEdgeStyle;rounded=0;orthogonalLoop=1;jettySize=auto;html=1;entryX=0;entryY=0.5;entryDx=0;entryDy=0;" edge="1" parent="1" source="DwHD0lK8wIMY4wtLwy6P-28" target="DwHD0lK8wIMY4wtLwy6P-38">
          <mxGeometry relative="1" as="geometry">
            <Array as="points">
              <mxPoint x="185" y="770" />
            </Array>
          </mxGeometry>
        </mxCell>
        <mxCell id="DwHD0lK8wIMY4wtLwy6P-28" value="&quot;The 1rd Number is the greatest among three&quot;" style="shape=parallelogram;perimeter=parallelogramPerimeter;whiteSpace=wrap;html=1;fixedSize=1;" vertex="1" parent="1">
          <mxGeometry x="50" y="450" width="270" height="50" as="geometry" />
        </mxCell>
        <mxCell id="DwHD0lK8wIMY4wtLwy6P-39" style="edgeStyle=orthogonalEdgeStyle;rounded=0;orthogonalLoop=1;jettySize=auto;html=1;entryX=0.5;entryY=0;entryDx=0;entryDy=0;" edge="1" parent="1" source="DwHD0lK8wIMY4wtLwy6P-30" target="DwHD0lK8wIMY4wtLwy6P-38">
          <mxGeometry relative="1" as="geometry" />
        </mxCell>
        <mxCell id="DwHD0lK8wIMY4wtLwy6P-30" value="&quot;The 2nd Number is the greatest among three&quot;" style="shape=parallelogram;perimeter=parallelogramPerimeter;whiteSpace=wrap;html=1;fixedSize=1;" vertex="1" parent="1">
          <mxGeometry x="245" y="560" width="280" height="40" as="geometry" />
        </mxCell>
        <mxCell id="DwHD0lK8wIMY4wtLwy6P-40" style="edgeStyle=orthogonalEdgeStyle;rounded=0;orthogonalLoop=1;jettySize=auto;html=1;entryX=1;entryY=0.5;entryDx=0;entryDy=0;" edge="1" parent="1" source="DwHD0lK8wIMY4wtLwy6P-32" target="DwHD0lK8wIMY4wtLwy6P-38">
          <mxGeometry relative="1" as="geometry">
            <Array as="points">
              <mxPoint x="620" y="770" />
            </Array>
          </mxGeometry>
        </mxCell>
        <mxCell id="DwHD0lK8wIMY4wtLwy6P-43" value="จริง" style="edgeLabel;html=1;align=center;verticalAlign=middle;resizable=0;points=[];" vertex="1" connectable="0" parent="DwHD0lK8wIMY4wtLwy6P-40">
          <mxGeometry x="-0.6571" y="3" relative="1" as="geometry">
            <mxPoint as="offset" />
          </mxGeometry>
        </mxCell>
        <mxCell id="DwHD0lK8wIMY4wtLwy6P-32" value="&quot;The 3rd Number is the greatest among three&quot;" style="shape=parallelogram;perimeter=parallelogramPerimeter;whiteSpace=wrap;html=1;fixedSize=1;" vertex="1" parent="1">
          <mxGeometry x="485" y="630" width="270" height="40" as="geometry" />
        </mxCell>
        <mxCell id="DwHD0lK8wIMY4wtLwy6P-42" value="" style="edgeStyle=orthogonalEdgeStyle;rounded=0;orthogonalLoop=1;jettySize=auto;html=1;" edge="1" parent="1" source="DwHD0lK8wIMY4wtLwy6P-38" target="UBjv-P3hsI7ne-E2DAJY-3">
          <mxGeometry relative="1" as="geometry" />
        </mxCell>
        <mxCell id="DwHD0lK8wIMY4wtLwy6P-38" value="" style="ellipse;whiteSpace=wrap;html=1;aspect=fixed;" vertex="1" parent="1">
          <mxGeometry x="365" y="750" width="40" height="40" as="geometry" />
        </mxCell>
      </root>
    </mxGraphModel>
  </diagram>
</mxfile>
